<?xml version="1.0" encoding="UTF-8" standalone="no"?>
<svg
   xmlns:osb="http://www.openswatchbook.org/uri/2009/osb"
   xmlns:dc="http://purl.org/dc/elements/1.1/"
   xmlns:cc="http://creativecommons.org/ns#"
   xmlns:rdf="http://www.w3.org/1999/02/22-rdf-syntax-ns#"
   xmlns:svg="http://www.w3.org/2000/svg"
   xmlns="http://www.w3.org/2000/svg"
   xmlns:sodipodi="http://sodipodi.sourceforge.net/DTD/sodipodi-0.dtd"
   xmlns:inkscape="http://www.inkscape.org/namespaces/inkscape"
   width="256"
   height="256"
   id="svg2"
   version="1.1"
   inkscape:version="0.91 r13725"
   sodipodi:docname="icon.svg">
  <metadata
     id="metadata25">
    <rdf:RDF>
      <cc:Work
         rdf:about="">
        <dc:format>image/svg+xml</dc:format>
        <dc:type
           rdf:resource="http://purl.org/dc/dcmitype/StillImage" />
        <dc:title />
      </cc:Work>
    </rdf:RDF>
  </metadata>
  <sodipodi:namedview
     pagecolor="#ffffff"
     bordercolor="#666666"
     borderopacity="1"
     objecttolerance="10"
     gridtolerance="10"
     guidetolerance="10"
     inkscape:pageopacity="0"
     inkscape:pageshadow="2"
     inkscape:window-width="1680"
     inkscape:window-height="1013"
     id="namedview23"
     showgrid="false"
     inkscape:zoom="1.9666667"
     inkscape:cx="-22.911162"
     inkscape:cy="106.76965"
     inkscape:window-x="1920"
     inkscape:window-y="0"
     inkscape:window-maximized="1"
     inkscape:current-layer="svg2"
     width="256px" />
  <defs
     id="defs4">
    <radialGradient
       id="radialGradient1902"
       fx="205.17999"
       fy="298.38"
       gradientUnits="userSpaceOnUse"
       cy="297.10999"
       cx="202.06"
       gradientTransform="scale(0.89396,1.1186)"
       r="188.62">
      <stop
         id="stop20139"
         stop-color="#00bf00"
         offset="0" />
      <stop
         id="stop20141"
         stop-color="#007500"
         offset="1" />
    </radialGradient>
    <linearGradient
       id="linearGradient3761"
       osb:paint="solid">
      <stop
         style="stop-color:#000000;stop-opacity:1;"
         offset="0"
         id="stop3763" />
    </linearGradient>
  </defs>
  <g
     id="g9"
     transform="matrix(0.96395967,0,0,0.96395967,-139.25776,-108.48354)"
     style="stroke:#000000;stroke-linecap:round;stroke-linejoin:round">
    <path
       id="polyline1560"
       d="m 278.80001,374.1007 -6.75204,-0.0428 -6.59803,-0.37546 -6.54304,-0.72005 -6.41203,-1.01683 -6.38304,-1.32158 -6.18803,-1.63131 -6.11903,-1.91316 -5.92604,-2.22388 -5.81803,-2.47983 -5.67203,-2.71387 -5.50303,-2.98476 -5.37003,-3.28055 -5.12402,-3.50463 -5.04003,-3.72373 -4.76903,-3.98466 -4.60802,-4.15596 -4.36102,-4.37804 -4.17603,-4.58819 -3.92802,-4.81127 -3.73002,-4.95767 -3.48102,-5.18076 -3.18201,-5.31819 -2.98102,-5.46459 -2.69601,-5.66278 -2.39602,-5.79922 -2.15601,-5.92271 -1.81801,-6.03426 -1.55601,-6.19659 -1.216,-6.30714 -0.90101,-6.38183 -0.6,-6.51926 -0.246,-6.56907 0.108,-6.61786 0.403,-6.48839 0.748,-6.43661 1.06801,-6.34598 1.42501,-6.23045 1.68301,-6.12588 1.97801,-5.99641 2.27301,-5.86595 2.57001,-5.73747 2.80102,-5.59207 3.13702,-5.43969 3.30401,-5.27836 3.61602,-5.08814 3.82402,-4.90488 4.05502,-4.75949 4.24003,-4.53839 4.51102,-4.36908 4.70903,-4.08425 4.87802,-3.9259 5.10203,-3.67892 5.26003,-3.41898 5.44503,-3.19689 5.56603,-2.96086 5.76303,-2.67403 5.92403,-2.4141 6.02003,-2.13923 6.19304,-1.81456 6.29003,-1.53969 6.38703,-1.26381 6.56104,-0.94015 6.57004,-0.61149 6.74403,-0.28782 6.69004,0.0568 6.63603,0.40035 6.52904,0.6583 6.45003,1.03974 6.32004,1.33652 6.25003,1.61737 6.05703,1.9271 5.95004,2.18404 5.81903,2.48083 5.68603,2.77562 5.50203,2.98675 5.33303,3.25664 5.18502,3.48969 4.97803,3.73668 4.79303,3.94682 4.58402,4.1938 4.40002,4.40295 4.17603,4.58918 3.95302,4.77243 3.70502,4.99551 3.46702,5.11901 3.22001,5.3411 2.95702,5.50343 2.68201,5.60004 2.43502,5.82312 2.11701,5.89881 1.83301,6.097 1.51601,6.17269 1.28,6.2922 0.90001,6.38183 0.561,6.49536 0.261,6.63181 -0.083,6.57902 -0.428,6.52724 -0.787,6.4127 -1.06701,6.34697 -1.36201,6.21452 -1.68301,6.12688 -2.04201,6.01135 -2.27301,5.86495 -2.50601,5.72253 -2.86502,5.60701 -3.07302,5.42476 -3.34401,5.25644 -3.57702,5.11005 -3.84802,4.94372 -4.03002,4.72065 -4.30403,4.55333 -4.48702,4.33024 -4.69403,4.14699 -4.89302,3.86316 -5.06203,3.70382 -5.28503,3.45682 -5.44503,3.19689 -5.60403,2.93696 -5.76403,2.67403 -5.86003,2.39916 -6.05803,2.11533 -6.18104,1.8773 -6.28903,1.53969 -6.42604,1.23991 -6.49703,0.92521 -6.63304,0.62643 -6.68203,0.27288"
       inkscape:connector-curvature="0"
       style="fill:#6c6c6c;stroke-width:0.68659562;stroke-dasharray:none;fill-opacity:1" />
    <g
       id="Continents"
       style="fill:#ffffff;fill-rule:evenodd;stroke-width:0.44499999">
      <polyline
         id="polyline1460"
         points="281.77 326.77 281.29 328.15 281.11 334.21 279.86 337 275.28 338.64 273.31 342.5 273.4 348.13 276.98 350.85 282.37 354.1 288.28 359.9 292.14 364.42 295.2 364.59 295.5 367.92 294.01 371.26 294.56 373.56 294.89 373.82 308.14 371.2 320.92 367.36 333.22 362.21 347.74 354.2 360.6 344.79 360.82 340.98 363.02 335.31 367.03 329.64 369.29 326.28 365.96 323.77 364.18 323.52 359.88 325.4 351.49 327.31 344.62 328.22 338.97 321.67 330.04 321.84 323.43 320.7 315.76 317.48 309.66 318.88 301.29 319.02 298 320.59 291.86 318.44 287.8 320.3 284.3 323.15 282.34 325.17 279.19 324.51 274.35 324.09 270.24 321.1 269.47 319.05 270.68 315.47 270.92 312.42 268.09 310.39 263.77 309.21 258.94 309.28 258.38 306.99 259.88 304.14 260.6 299.28 257.75 297.56 253.96 298.88 252.46 301.46 249.69 302.28 246.09 301.06 241.2 297.09 240.66 291.99 241.34 287.38 245.37 281.94 250.7 280.82 254.02 281.27 256.3 282.53 258.59 282.22 261.15 280.89 265.46 281.3 269.54 283.04 272.42 287.32 274.73 290.6 277.27 289.8 276.47 285.73 274.88 282.42 275.61 278.32 277.59 274.96 282.61 271.32 285.63 268.71 285.85 263.87 287.84 258.44 290.32 254.8 292.1 254.28 293.11 251.72 295.58 247.84 297.86 246.77 300.16 248 301.92 245.95 305.72 243.83 308.48 242.25 307.43 239.7 303.62 240.3 301.84 239.78 301.57 237.02 299.01 236.29 296.49 238.35 293.71 239.7 293.42 238.44 296.19 235.56 300.73 233.19 303.55 232.89 307.36 231.26 308.58 228.45 307.26 224.87 303.41 220.35 296.46 215.1 292.37 214.66 290.08 214.21 287.76 211.19 280.88 208.25 278.33 209.05 278.36 213.4 278.68 219.02 280.5 221.02 279.01 223.33 278.33 228.21 277.6 232.58 274.76 230.05 272.72 226.77 272.41 222.95 269.08 221.47 263.96 220.28 262.13 217.52 262.58 211.62 265.6 206.96 270.38 202.3 274.67 199.13 276.64 196.57 274.34 194.06 271.3 195.14 267.98 194.15 267.42 190.82 267.12 187.77 264.84 187.81 264.15 192.19 262.1 194 260.36 192.75 260.26 187.39 258.95 183.87 256.12 182.37 253.81 178.82 250 179.15 247.73 181.25 250.55 183.72 251.12 186.78 254.45 189.28 253.98 192.62 243.68 184.63 238.31 179.87 235.46 175.82 235.43 172.23 234.34 167.44 232.01 166.42 227.71 166.5 225.92 167.55 223.63 167.09 221.1 167.36 220.13 169.94 219.11 171.75 214.25 170.83 211.24 172.9 209.51 176.53 208.52 179.6 205.72 179.15 202.88 176.9 203.94 180.21 208.31 182.17 213.15 183.89 217.25 186.12 218.83 190.41 219.14 195.26 217.46 202.44 215.24 209.88 214.8 215.78 214.86 219.12 215.67 222.66 212.65 226.29 209.9 230.96 207.19 237.12 206 244.56 205.11 255.04 206.18 258.85 208.3 265.97 209.88 271.55 212.26 278.18 215.33 281.45 217.91 282.41 215.32 279.39 213.99 275.58 213.2 271.24 212.39 267.44 214.4 266.9 215.46 269.94 217.31 277.32 221.24 285.18 222.32 289.49 221.31 292.32 223.68 295.86 228.27 298.07 235.22 304.35 239.53 306.06 246.2 308.22 253.84 311.42 257.71 313.93 261.3 317.15 264.18 323.49 269.8 325.69 273.4 326.91 277.46 326.35 281.77 326.77" />
      <polyline
         id="polyline1464"
         points="267.43 297.91 270.48 296.56 275.33 297.74 280.94 299.45 285.25 299.87 289.11 301.62 288.11 303.66 283.53 304.27 279.71 301.5 275.08 299.27 267.43 297.91" />
      <polyline
         id="polyline1468"
         points="290.39 302.85 290.19 304.9 293.5 306.15 296.56 306.59 301.88 305.74 298.29 303.72 298.54 302.47 296.47 301.72 290.39 302.85" />
      <polyline
         id="polyline1472"
         points="309.35 228.17 311.15 229.94 314.5 232.68 318.07 235.67 319.12 237.95 313.5 238.07 309.93 234.06 308.62 231.24 309.35 228.17" />
      <polyline
         id="polyline1476"
         points="285.43 207.41 282.12 206.43 278.04 205.73 282.08 202.61 282.27 198.24 280.44 195.48 275.59 194.03 272.27 192.55 268.92 188.24 271.68 185.63 275.53 186.62 280.38 189.11 284.99 191.55 286.82 195.61 288.36 196.84 292.18 198.58 294.54 202.64 292.51 204.95 291.82 208.31 288.78 208.86 285.43 207.41" />
      <polyline
         id="polyline1480"
         points="303.97 203.49 308.57 206.46 310.63 207.48 315.2 206.1 320.74 204.2 315.38 202.27 313.58 199.46 314.03 194.6 314.43 186.19 317.46 183.32 317.41 178.74 312.53 173.96 307.39 170.22 301.23 168.27 296.14 165.04 290.26 164.9 285.71 166.5 283.44 169.36 280.88 169.66 280.65 167.62 277.07 167.66 272.78 169.54 273.56 172.35 271.59 177.24 273.68 180.27 277.73 182.74 279.48 176.58 281.47 174.25 282.82 178.56 286.38 182.08 289.71 183.56 294.87 187.53 299.25 191.56 300.34 199.22 303.42 200.92 303.97 203.49" />
      <polyline
         id="polyline1484"
         points="321.26 182.49 321.85 186.81 323.37 189.11 326.17 190.32 329.71 186.19 331.15 181.03 328.08 178.79 324.78 179.87 323.28 181.91 321.26 182.49" />
      <polyline
         id="polyline1488"
         points="375.22 161.35 377.04 165.68 376.83 169.99 377.88 173.56 381.48 175.81 381.23 178.63 378.21 179.67 376.18 179.49 373.42 180.8 379.04 183.27 378.3 185.58 373.2 185.64 373.75 188.48 375.05 191.99 375.13 196.1 377.45 199.88 379.27 203.44 382.1 205.97 380.84 207.73 380.36 209.54 379.39 213.43 376.37 215.77 371.5 212.79 371.22 209.96 368.36 207.47 368.34 203.89 370.83 201.27 370.56 197.48 365.93 196.27 363.65 196.31 362.1 193.78 362.55 187.88 359.18 181.56 355.84 179.31 354.75 175.28 353.9 169.66 349.78 163.57 348.7 159 345.37 157.79 341.83 155.8 339.75 154.56 338.49 155.88 340.31 157.88 337.29 160.22 340.08 160.93 343.19 163.2 346.53 166.47 350.62 168.7 346.56 170.55 345.33 173.14 341.74 172.42 337.42 170.21 334.01 164.62 331.43 162.63 325.58 159.68 321.21 157.45 318.14 153.15 321.64 151.06 328 149.93 327.22 147.12 324.66 146.39 323.92 147.93 319.55 148.03 320.3 145.19 317.5 143.99 315.69 141.45 310.56 138.2 302.85 132.96 301.32 133.79 299.87 135.59 296.56 136.67 294.48 135.69 290.66 135 285.6 135.36 283.06 136.92 277.74 137.77 272.9 137.08 269.57 135.86 269.05 133.32 263.93 133.16 261.93 135 256.6 135.35 251.76 136.46 251.8 139.24 249.27 140.8 243.93 141.43 241.93 143 242.71 145.54 240.43 146.88 234.08 147.74 233.61 150.04 233.4 152.89 231.36 154.16 227.85 157.82 225.32 160.41 222.07 163.04 218 163.86 219.01 162.32 221 159.23 220.45 157.43 217.18 157.5 215.37 154.96 213.79 152.41 216.3 149.59 219.05 147.24 221.34 146.94 223.38 143.07 222.79 138.75 225.84 137.4 230.11 135.3 230.33 130.46 228 128.41 225.71 127.68 237.56 123.43 247.52 120.66 257.19 118.78 269.3 117.4 280.07 117.13 292.68 117.96 308.34 120.63 323.64 125.24 334.07 129.74 344.84 135.43 353.94 141.37 362.48 147.78 369.98 154.83 375.01 160.14 375.22 161.35" />
      <polyline
         id="polyline1492"
         points="345.64 176.96 343.36 178.02 344.37 180.28 346.74 183.82 347.52 186.36 348.59 190.17 352.2 193.18 354.71 193.39 353.69 191.13 350.57 188.37 350.31 186.8 353.39 188.07 356.74 189.78 359.79 190.76 359.77 188.2 359.88 187.94 359.98 187.69 360.05 187.4 360.06 187.14 360.07 186.6 360.01 186.08 359.9 185.58 359.81 185.2 359.73 184.98 359.7 184.86 357.66 183.64 351.27 180.95 348.45 179.69 345.64 176.96" />
      <polyline
         id="polyline1496"
         points="383.99 171.36 383.76 174.74 384.83 178.55 383.81 180.62 382.06 180.67 383.6 183.2 386.71 187.19 387.01 192.58 384.22 191.87 382.43 192.16 382 198.28 382.33 203.62 381.59 206.19 381.88 210.81 380.38 213.4 379.44 216.71 380.99 221.3 383.61 227.37 383.41 231.74 383.27 240.69 384.39 248.81 386.5 255.43 389.88 262.79 394.26 267.58 399.39 268.77 402.37 264.08 404.39 261.01 407.16 259.76 407.83 251.52 407.91 243.88 407.58 236.04 406.6 226.82 404.53 216 401.95 206.76 399.04 198.56 395.42 190.4 391.7 183.16 387.18 175.9 383.99 171.36" />
    </g>
  </g>
  <path
     id="path3795"
     style="fill:#484848;fill-opacity:1;stroke:#000000;stroke-width:1.01342964;stroke-linecap:round;stroke-linejoin:miter;stroke-miterlimit:0;stroke-dasharray:none;stroke-opacity:1"
     d="m 82.585006,120.10617 90.167744,-0.75879 c 0,0 10.92417,-1.70906 11.59889,9.60491 0.65546,10.99072 -8.47697,9.12705 -8.47697,9.12705 l -93.50736,0.78691 c 0,0 -11.611306,1.39137 -11.913518,-9.27889 -1.657344,-10.98228 12.131214,-9.48119 12.131214,-9.48119 z"
     inkscape:connector-curvature="0"
     sodipodi:nodetypes="ccccccc" />
  <path
     style="fill:#484848;fill-opacity:1;stroke:#000000;stroke-width:1.01342964;stroke-linecap:round;stroke-linejoin:miter;stroke-miterlimit:0;stroke-dasharray:none;stroke-opacity:1"
     d="m 137.63629,108.47645 c 0,0 5.99348,-23.636341 41.04931,-24.108225 42.41985,-0.570905 45.39978,32.930085 45.75985,44.570125 1.22702,9.36878 -6.40853,45.73272 -39.86962,45.52067 -26.54631,-2.06792 -42.92962,-24.45164 -42.92962,-24.45164 l 17.82492,-0.008 c 0,0 5.81397,6.60332 23.86676,6.77479 16.04917,0.1882 24.42969,-10.55494 24.03735,-28.33963 -1.11818,-18.74885 -7.94735,-27.02374 -26.40918,-28.23859 -22.04101,0.18545 -23.06586,7.7911 -23.06586,7.7911 z"
     id="path3767"
     inkscape:connector-curvature="0"
     sodipodi:nodetypes="csccccccccc" />
  <path
     style="fill:#484848;fill-opacity:1;stroke:#000000;stroke-width:1.01342964;stroke-linecap:round;stroke-linejoin:miter;stroke-miterlimit:0;stroke-dasharray:none;stroke-opacity:1"
     d="m 109.76117,109.58953 c 0,0 -6.00481,-23.917138 -41.08258,-23.815501 -38.771925,0.112359 -41.133015,33.011381 -40.715155,45.621171 0.925391,15.51628 14.496168,42.85682 47.557642,42.57862 36.936353,-1.37717 36.818273,-24.65186 36.818273,-24.65186 l -17.047517,0.62863 c 0,0 -4.61457,7.76058 -22.628814,8.23559 -17.108762,-1.14967 -27.21144,-13.67796 -27.39175,-27.90684 -1.118192,-18.74888 10.651727,-28.47397 23.016124,-28.65455 22.041016,-0.18543 23.545506,7.63049 23.545506,7.63049 z"
     id="path3767-1"
     inkscape:connector-curvature="0"
     sodipodi:nodetypes="csccccccccc" />
</svg>
